<svg version="1.1" id="Layer_1" xmlns="http://www.w3.org/2000/svg" xmlns:xlink="http://www.w3.org/1999/xlink" x="0px" y="0px"
	 width="100%" viewBox="0 0 1000 1000" enable-background="new 0 0 1000 1000" xml:space="preserve">
<path fill="#47704C" opacity="1.000000" stroke="none" 
	d="
M689.000000,1001.000000 
	C459.333344,1001.000000 230.166672,1001.000000 1.000000,1001.000000 
	C1.000000,667.666687 1.000000,334.333344 1.000000,1.000000 
	C334.333344,1.000000 667.666687,1.000000 1001.000000,1.000000 
	C1001.000000,334.333344 1001.000000,667.666687 1001.000000,1001.000000 
	C897.166687,1001.000000 793.333313,1001.000000 689.000000,1001.000000 
M493.729004,874.916504 
	C505.516144,879.662781 517.462463,882.174255 530.381409,880.128296 
	C545.760437,877.692932 558.234741,870.477844 568.927002,859.570801 
	C572.726257,855.695251 576.262207,851.457458 580.510986,848.145325 
	C596.335449,835.809570 614.106201,832.234192 633.712097,836.767090 
	C643.736877,839.084900 653.600281,841.600159 664.351501,840.220642 
	C690.199341,836.904236 711.983887,818.318970 718.050476,793.666809 
	C722.091248,777.247131 731.157715,764.276550 745.316040,754.861450 
	C754.186584,748.962585 764.104187,746.619507 774.413757,744.587219 
	C794.153992,740.695862 808.822144,729.426697 818.175476,711.490479 
	C824.248657,699.844421 826.104187,687.396118 824.649719,674.463135 
	C823.681152,665.851440 821.394226,657.488464 822.844299,648.553284 
	C825.022461,635.131592 829.775757,623.148621 839.718384,613.746338 
	C845.311218,608.457581 851.869019,604.189880 857.467896,598.906738 
	C871.216858,585.932800 878.398743,570.079346 878.084412,550.860474 
	C877.869202,537.701599 874.581299,525.593262 866.595215,515.233093 
	C849.479431,493.029358 847.173096,467.224213 860.855774,442.476196 
	C866.489685,432.285950 869.395020,421.630707 869.100830,409.847168 
	C868.548584,387.720673 859.205200,370.590210 841.163391,358.087677 
	C834.808960,353.684204 827.909912,350.018127 821.815308,345.297852 
	C807.942566,334.553345 801.429321,319.737091 800.061829,302.567993 
	C799.378235,293.985199 800.186829,285.217560 798.853027,276.765106 
	C795.206848,253.658463 781.611084,238.154099 760.343384,228.937149 
	C749.630127,224.294235 738.043701,225.049072 726.927368,222.964554 
	C706.018311,219.043686 691.034363,207.190536 681.952087,188.006516 
	C677.202393,177.974014 672.221375,168.300354 664.029541,160.363297 
	C646.596863,143.472733 617.640869,138.437866 595.532959,148.716064 
	C576.932007,157.363876 558.008240,157.608780 539.766113,148.092545 
	C532.273865,144.184097 525.934448,138.076874 519.035339,133.017914 
	C506.224548,123.624054 491.845520,119.825592 476.059235,120.987297 
	C466.543152,121.687576 457.083252,123.533600 449.517395,129.282974 
	C439.986267,136.525818 431.704285,145.389053 422.400543,152.959885 
	C407.747803,164.883392 390.678833,168.772797 372.327972,165.019348 
	C359.160858,162.326172 346.150513,158.972931 332.691193,162.038452 
	C310.767578,167.031799 295.177124,179.806412 286.650848,200.774887 
	C283.130707,209.431870 281.005249,218.859222 276.314178,226.794464 
	C266.575867,243.267609 251.554916,252.966446 232.502014,255.978958 
	C214.377289,258.844727 199.659424,267.362183 188.925018,282.314850 
	C177.409348,298.355865 175.980835,316.350891 179.133881,335.180573 
	C182.435089,354.894867 177.438141,372.327850 163.598541,386.723236 
	C155.736725,394.900726 146.619919,401.866119 138.686188,409.981445 
	C129.031342,419.857361 125.035324,432.669128 124.207893,445.983765 
	C123.203896,462.139709 128.494751,476.748505 138.256241,489.832001 
	C153.122040,509.756958 154.783859,535.406189 142.690491,556.811218 
	C134.525284,571.263367 130.715317,586.640930 134.228226,602.980225 
	C138.571625,623.182251 150.370087,638.211304 168.679703,647.869385 
	C191.302155,659.802429 201.819214,679.048706 202.930038,703.996399 
	C203.097305,707.753235 201.774185,711.602539 202.112091,715.320740 
	C203.055130,725.698303 204.971161,735.882812 210.497482,745.025513 
	C217.602463,756.780090 227.032211,765.714233 239.717468,771.514099 
	C250.255692,776.332336 261.468842,776.378784 272.499603,778.018005 
	C295.369171,781.416565 311.561523,793.796082 321.021149,814.843506 
	C325.319946,824.408142 330.065979,833.765320 337.909332,840.827698 
	C356.638184,857.691895 378.178864,862.389587 402.252594,854.361267 
	C412.387207,850.981506 422.181396,846.758972 433.275635,846.689758 
	C446.945099,846.604492 459.295441,850.006531 470.378113,857.904907 
	C478.015656,863.347961 485.509216,868.993164 493.729004,874.916504 
z"/>
<path fill="#000000" opacity="1.000000" stroke="none" 
	d="
M493.398071,874.732300 
	C485.509216,868.993164 478.015656,863.347961 470.378113,857.904907 
	C459.295441,850.006531 446.945099,846.604492 433.275635,846.689758 
	C422.181396,846.758972 412.387207,850.981506 402.252594,854.361267 
	C378.178864,862.389587 356.638184,857.691895 337.909332,840.827698 
	C330.065979,833.765320 325.319946,824.408142 321.021149,814.843506 
	C311.561523,793.796082 295.369171,781.416565 272.499603,778.018005 
	C261.468842,776.378784 250.255692,776.332336 239.717468,771.514099 
	C227.032211,765.714233 217.602463,756.780090 210.497482,745.025513 
	C204.971161,735.882812 203.055130,725.698303 202.112091,715.320740 
	C201.774185,711.602539 203.097305,707.753235 202.930038,703.996399 
	C201.819214,679.048706 191.302155,659.802429 168.679703,647.869385 
	C150.370087,638.211304 138.571625,623.182251 134.228226,602.980225 
	C130.715317,586.640930 134.525284,571.263367 142.690491,556.811218 
	C154.783859,535.406189 153.122040,509.756958 138.256241,489.832001 
	C128.494751,476.748505 123.203896,462.139709 124.207893,445.983765 
	C125.035324,432.669128 129.031342,419.857361 138.686188,409.981445 
	C146.619919,401.866119 155.736725,394.900726 163.598541,386.723236 
	C177.438141,372.327850 182.435089,354.894867 179.133881,335.180573 
	C175.980835,316.350891 177.409348,298.355865 188.925018,282.314850 
	C199.659424,267.362183 214.377289,258.844727 232.502014,255.978958 
	C251.554916,252.966446 266.575867,243.267609 276.314178,226.794464 
	C281.005249,218.859222 283.130707,209.431870 286.650848,200.774887 
	C295.177124,179.806412 310.767578,167.031799 332.691193,162.038452 
	C346.150513,158.972931 359.160858,162.326172 372.327972,165.019348 
	C390.678833,168.772797 407.747803,164.883392 422.400543,152.959885 
	C431.704285,145.389053 439.986267,136.525818 449.517395,129.282974 
	C457.083252,123.533600 466.543152,121.687576 476.059235,120.987297 
	C491.845520,119.825592 506.224548,123.624054 519.035339,133.017914 
	C525.934448,138.076874 532.273865,144.184097 539.766113,148.092545 
	C558.008240,157.608780 576.932007,157.363876 595.532959,148.716064 
	C617.640869,138.437866 646.596863,143.472733 664.029541,160.363297 
	C672.221375,168.300354 677.202393,177.974014 681.952087,188.006516 
	C691.034363,207.190536 706.018311,219.043686 726.927368,222.964554 
	C738.043701,225.049072 749.630127,224.294235 760.343384,228.937149 
	C781.611084,238.154099 795.206848,253.658463 798.853027,276.765106 
	C800.186829,285.217560 799.378235,293.985199 800.061829,302.567993 
	C801.429321,319.737091 807.942566,334.553345 821.815308,345.297852 
	C827.909912,350.018127 834.808960,353.684204 841.163391,358.087677 
	C859.205200,370.590210 868.548584,387.720673 869.100830,409.847168 
	C869.395020,421.630707 866.489685,432.285950 860.855774,442.476196 
	C847.173096,467.224213 849.479431,493.029358 866.595215,515.233093 
	C874.581299,525.593262 877.869202,537.701599 878.084412,550.860474 
	C878.398743,570.079346 871.216858,585.932800 857.467896,598.906738 
	C851.869019,604.189880 845.311218,608.457581 839.718384,613.746338 
	C829.775757,623.148621 825.022461,635.131592 822.844299,648.553284 
	C821.394226,657.488464 823.681152,665.851440 824.649719,674.463135 
	C826.104187,687.396118 824.248657,699.844421 818.175476,711.490479 
	C808.822144,729.426697 794.153992,740.695862 774.413757,744.587219 
	C764.104187,746.619507 754.186584,748.962585 745.316040,754.861450 
	C731.157715,764.276550 722.091248,777.247131 718.050476,793.666809 
	C711.983887,818.318970 690.199341,836.904236 664.351501,840.220642 
	C653.600281,841.600159 643.736877,839.084900 633.712097,836.767090 
	C614.106201,832.234192 596.335449,835.809570 580.510986,848.145325 
	C576.262207,851.457458 572.726257,855.695251 568.927002,859.570801 
	C558.234741,870.477844 545.760437,877.692932 530.381409,880.128296 
	C517.462463,882.174255 505.516144,879.662781 493.398071,874.732300 
M348.167938,597.331726 
	C364.669128,613.826599 381.166534,630.325317 397.672638,646.815308 
	C412.472229,661.600403 428.179535,661.592957 442.957275,646.839783 
	C504.523346,585.375854 566.096252,523.918884 627.666809,462.459564 
	C650.077759,440.089172 672.499084,417.729218 694.896118,395.344940 
	C703.866455,386.379761 707.584839,375.855255 703.354919,363.496002 
	C696.128235,342.380554 670.241943,337.149780 653.886719,353.470306 
	C595.845154,411.388916 537.857666,469.361664 479.842407,527.306641 
	C462.744690,544.383606 445.652954,561.466736 428.496857,578.484985 
	C422.132843,584.797852 418.444244,584.678101 412.010742,578.322754 
	C411.536530,577.854309 411.072235,577.375854 410.600220,576.905212 
	C389.946533,556.312927 369.282654,535.730835 348.643707,515.123779 
	C341.254852,507.746277 332.566895,503.692474 322.042053,505.722748 
	C310.529327,507.943573 302.414520,514.715759 298.910736,526.031860 
	C295.465088,537.160156 298.211090,547.180542 306.330811,555.442383 
	C319.998077,569.348633 333.877655,583.046326 348.167938,597.331726 
z"/>
<path fill="#FEFEFE" opacity="1.000000" stroke="none" 
	d="
M347.917908,597.081726 
	C333.877655,583.046326 319.998077,569.348633 306.330811,555.442383 
	C298.211090,547.180542 295.465088,537.160156 298.910736,526.031860 
	C302.414520,514.715759 310.529327,507.943573 322.042053,505.722748 
	C332.566895,503.692474 341.254852,507.746277 348.643707,515.123779 
	C369.282654,535.730835 389.946533,556.312927 410.600220,576.905212 
	C411.072235,577.375854 411.536530,577.854309 412.010742,578.322754 
	C418.444244,584.678101 422.132843,584.797852 428.496857,578.484985 
	C445.652954,561.466736 462.744690,544.383606 479.842407,527.306641 
	C537.857666,469.361664 595.845154,411.388916 653.886719,353.470306 
	C670.241943,337.149780 696.128235,342.380554 703.354919,363.496002 
	C707.584839,375.855255 703.866455,386.379761 694.896118,395.344940 
	C672.499084,417.729218 650.077759,440.089172 627.666809,462.459564 
	C566.096252,523.918884 504.523346,585.375854 442.957275,646.839783 
	C428.179535,661.592957 412.472229,661.600403 397.672638,646.815308 
	C381.166534,630.325317 364.669128,613.826599 347.917908,597.081726 
z"/>
</svg>